<svg width="251" height="131" viewBox="0 0 251 131" fill="none" xmlns="http://www.w3.org/2000/svg">
<g id="Group 7">
<path id="Vector" d="M-0.333496 110.311L2.4665 101.024C5.2665 91.7368 10.8665 73.1624 16.4665 66.8949C22.0665 60.6274 27.6665 66.6668 33.2665 72.0879C38.8665 77.509 44.4665 82.3117 50.0665 84.7664C55.6665 87.221 61.2665 87.3276 66.8665 85.7303C72.4665 84.1331 78.0665 80.8319 83.6665 79.6215C89.2665 78.4111 94.8665 79.2913 100.467 82.6582C106.067 86.0252 111.667 91.8788 117.267 86.3348C122.867 80.7908 128.467 63.8493 134.067 54.2077C139.667 44.5661 145.267 42.2245 150.867 41.2379C156.467 40.2514 162.067 40.62 167.667 40.7415C173.267 40.8629 178.867 40.7371 184.467 42.6567C190.067 44.5763 195.667 48.5413 201.267 50.6309C206.867 52.7204 212.467 52.9346 218.067 54.797C223.667 56.6594 229.267 60.1701 234.867 51.4787C240.467 42.7872 246.066 21.8936 248.866 11.4468L251.667 1" stroke="#2A6274"/>
<path id="Vector_2" d="M2.4665 101.024L-0.333496 110.311V131.338H251.667V1L248.867 11.4468L248.866 11.447C246.066 21.8938 240.466 42.7873 234.867 51.4787C229.266 60.1702 223.667 56.6594 218.067 54.797C212.467 52.9346 206.867 52.7204 201.267 50.6309C195.667 48.5413 190.067 44.5763 184.467 42.6567C178.867 40.7371 173.267 40.8629 167.667 40.7415C162.066 40.62 156.467 40.2514 150.867 41.2379C145.266 42.2245 139.667 44.5661 134.067 54.2077C128.467 63.8493 122.867 80.7908 117.267 86.3348C111.667 91.8788 106.067 86.0252 100.467 82.6582C94.8665 79.2913 89.2665 78.4111 83.6665 79.6215C78.0665 80.832 72.4665 84.1331 66.8665 85.7304C61.2665 87.3276 55.6665 87.221 50.0665 84.7664C44.4665 82.3117 38.8665 77.509 33.2665 72.0879C27.6665 66.6668 22.0665 60.6274 16.4665 66.8949C10.8665 73.1624 5.2665 91.7368 2.4665 101.024Z" fill="url(#paint0_linear_231_889)" fill-opacity="0.2"/>
</g>
<defs>
<linearGradient id="paint0_linear_231_889" x1="125.667" y1="1" x2="125.667" y2="131.338" gradientUnits="userSpaceOnUse">
<stop stop-color="white"/>
<stop offset="1" stop-color="white" stop-opacity="0"/>
</linearGradient>
</defs>
</svg>
