<svg width="253" height="109" viewBox="0 0 253 109" fill="none" xmlns="http://www.w3.org/2000/svg">
<g id="Group 5">
<path id="Vector" d="M1.3335 75.5514L4.12591 69.851C6.91832 64.1507 12.5031 52.75 18.088 49.0274C23.6728 45.3049 29.2576 49.2605 34.8424 56.7694C40.4272 64.2784 46.0121 75.3407 51.5969 80.2486C57.1817 85.1565 62.7665 83.91 68.3514 77.0725C73.9362 70.2349 79.521 57.8063 85.1058 57.1439C90.6906 56.4815 96.2755 67.5853 101.86 69.7738C107.445 71.9623 113.03 65.2356 118.615 60.2466C124.2 55.2577 129.784 52.0065 135.369 54.2924C140.954 56.5782 146.539 64.4012 152.124 66.6934C157.708 68.9856 163.293 65.7472 168.878 53.8573C174.463 41.9674 180.048 21.4262 185.633 10.7633C191.217 0.100343 196.802 -0.684242 202.387 2.9845C207.972 6.65324 213.557 14.7753 219.142 14.5021C224.726 14.2289 230.311 5.56039 235.896 3.01834C241.481 0.476296 247.066 4.0607 249.858 5.8529L252.65 7.6451" stroke="#8C8E16" stroke-opacity="0.3" stroke-width="0.964286"/>
<path id="Vector_2" d="M4.12591 69.851L1.3335 75.5514V109H252.65V7.6451L249.858 5.8529C247.066 4.0607 241.481 0.476296 235.896 3.01834C230.311 5.56039 224.726 14.2289 219.142 14.5021C213.557 14.7753 207.972 6.65324 202.387 2.9845C196.802 -0.684242 191.217 0.100343 185.633 10.7633C180.048 21.4262 174.463 41.9674 168.878 53.8573C163.293 65.7472 157.708 68.9856 152.124 66.6934C146.539 64.4012 140.954 56.5782 135.369 54.2924C129.784 52.0065 124.2 55.2577 118.615 60.2466C113.03 65.2356 107.445 71.9623 101.86 69.7738C96.2755 67.5853 90.6906 56.4815 85.1058 57.1439C79.521 57.8063 73.9362 70.2349 68.3514 77.0725C62.7665 83.91 57.1817 85.1565 51.5969 80.2486C46.0121 75.3407 40.4272 64.2784 34.8424 56.7694C29.2576 49.2605 23.6728 45.3049 18.088 49.0274C12.5031 52.75 6.91832 64.1507 4.12591 69.851Z" fill="url(#paint0_linear_231_960)"/>
</g>
<defs>
<linearGradient id="paint0_linear_231_960" x1="126.992" y1="1" x2="126.992" y2="109" gradientUnits="userSpaceOnUse">
<stop stop-color="white" stop-opacity="0.2"/>
<stop offset="1" stop-color="white" stop-opacity="0"/>
</linearGradient>
</defs>
</svg>
