<svg width="251" height="121" viewBox="0 0 251 121" fill="none" xmlns="http://www.w3.org/2000/svg">
<g id="Group 6">
<path id="Vector" d="M1 76.7577L3.75163 74.6939C6.50326 72.6301 12.0065 68.5025 17.5098 62.8439C23.013 57.1853 28.5163 49.9957 34.0196 48.5863C39.5228 47.1768 45.0261 51.5473 50.5294 60.0953C56.0326 68.6432 61.5359 81.3685 67.0391 85.201C72.5424 89.0336 78.0457 83.9735 83.5489 76.5421C89.0522 69.1106 94.5555 59.3079 100.059 52.5434C105.562 45.779 111.065 42.053 116.568 47.0071C122.072 51.9613 127.575 65.5956 133.078 68.7094C138.582 71.8232 144.085 64.4164 149.588 55.2221C155.091 46.0277 160.595 35.0458 166.098 27.5832C171.601 20.1205 177.104 16.1773 182.608 17.7173C188.111 19.2573 193.614 26.2807 199.117 36.6695C204.621 47.0582 210.124 60.8124 215.627 58.4033C221.13 55.9942 226.634 37.4218 232.137 25.3274C237.64 13.233 243.144 7.61649 245.895 4.80824L248.647 2" stroke="black" stroke-opacity="0.3"/>
<path id="Vector_2" d="M3.77053 74.8253L1.00391 76.8929V120H250V2L247.233 4.81332C244.467 7.62664 238.934 13.2533 233.4 25.3696C227.867 37.4859 222.334 56.0918 216.801 58.5053C211.267 60.9187 205.734 47.1397 200.201 36.7322C194.668 26.3246 189.134 19.2885 183.601 17.7457C178.068 16.2029 172.535 20.1533 167.001 27.6294C161.468 35.1055 155.935 46.1073 150.402 55.3183C144.868 64.5293 139.335 71.9494 133.802 68.83C128.269 65.7106 122.735 52.0516 117.202 47.0885C111.669 42.1254 106.136 45.8582 100.602 52.6348C95.0691 59.4115 89.5359 69.2319 84.0026 76.6768C78.4694 84.1217 72.9361 89.191 67.4029 85.3515C61.8696 81.512 56.3364 68.7637 50.8031 60.2003C45.2699 51.6369 39.7366 47.2584 34.2034 48.6705C28.6701 50.0825 23.1369 57.2851 17.6036 62.9539C12.0704 68.6227 6.53715 72.7578 3.77053 74.8253Z" fill="url(#paint0_linear_231_945)" stroke="black" stroke-opacity="0.3"/>
</g>
<defs>
<linearGradient id="paint0_linear_231_945" x1="125.502" y1="2" x2="125.502" y2="120" gradientUnits="userSpaceOnUse">
<stop stop-color="white" stop-opacity="0.2"/>
<stop offset="1" stop-color="white" stop-opacity="0"/>
</linearGradient>
</defs>
</svg>
